<svg xmlns="http://www.w3.org/2000/svg" xmlns:xlink="http://www.w3.org/1999/xlink" width="500" zoomAndPan="magnify" viewBox="0 0 375 374.999991" height="500" preserveAspectRatio="xMidYMid meet" version="1.2"><defs><clipPath id="88409e9e0f"><path d="M 72.171875 137.871094 L 132.921875 137.871094 L 132.921875 208.371094 L 72.171875 208.371094 Z M 72.171875 137.871094 "/></clipPath></defs><g id="b77df874a9"><g clip-rule="nonzero" clip-path="url(#88409e9e0f)"><path style=" stroke:none;fill-rule:nonzero;fill:#004aad;fill-opacity:1;" d="M 72.871094 207.101562 C 73.296875 207.722656 73.984375 208.054688 74.683594 208.054688 C 75.113281 208.054688 75.550781 207.929688 75.929688 207.664062 L 110.429688 183.871094 C 111.03125 183.457031 111.359375 182.800781 111.378906 182.125 L 131.792969 191.921875 C 131.890625 191.972656 131.996094 191.992188 132.101562 191.992188 C 132.367188 191.992188 132.621094 191.84375 132.746094 191.589844 C 132.914062 191.234375 132.765625 190.804688 132.410156 190.636719 L 110.597656 180.167969 C 110.464844 180.101562 110.324219 180.085938 110.1875 180.105469 C 109.492188 179.746094 108.621094 179.773438 107.929688 180.25 L 73.429688 204.042969 C 72.429688 204.730469 72.179688 206.101562 72.871094 207.101562 Z M 72.871094 196.632812 C 73.296875 197.253906 73.984375 197.585938 74.683594 197.585938 C 75.113281 197.585938 75.550781 197.460938 75.929688 197.195312 L 110.429688 173.402344 C 111.03125 172.992188 111.359375 172.332031 111.378906 171.65625 L 131.792969 181.453125 C 131.890625 181.5 131.996094 181.523438 132.101562 181.523438 C 132.367188 181.523438 132.621094 181.375 132.746094 181.121094 C 132.914062 180.765625 132.765625 180.339844 132.410156 180.167969 L 110.597656 169.699219 C 110.464844 169.632812 110.324219 169.617188 110.1875 169.636719 C 109.492188 169.277344 108.621094 169.304688 107.929688 169.78125 L 73.429688 193.574219 C 72.429688 194.261719 72.179688 195.632812 72.871094 196.632812 Z M 72.871094 186.164062 C 73.296875 186.785156 73.984375 187.117188 74.683594 187.117188 C 75.113281 187.117188 75.550781 186.992188 75.929688 186.726562 L 110.429688 162.933594 C 111.03125 162.519531 111.359375 161.863281 111.378906 161.1875 L 131.792969 170.984375 C 131.890625 171.03125 131.996094 171.054688 132.101562 171.054688 C 132.367188 171.054688 132.621094 170.90625 132.746094 170.648438 C 132.914062 170.296875 132.765625 169.867188 132.410156 169.699219 L 110.597656 159.230469 C 110.464844 159.164062 110.324219 159.144531 110.1875 159.167969 C 109.492188 158.808594 108.621094 158.835938 107.929688 159.3125 L 73.429688 183.105469 C 72.429688 183.792969 72.179688 185.164062 72.871094 186.164062 Z M 72.871094 175.695312 C 73.296875 176.316406 73.984375 176.648438 74.683594 176.648438 C 75.113281 176.648438 75.550781 176.523438 75.929688 176.257812 L 110.429688 152.464844 C 111.03125 152.050781 111.359375 151.394531 111.378906 150.71875 L 131.792969 160.515625 C 131.890625 160.5625 131.996094 160.585938 132.101562 160.585938 C 132.367188 160.585938 132.621094 160.4375 132.746094 160.179688 C 132.914062 159.828125 132.765625 159.398438 132.410156 159.230469 L 110.597656 148.761719 C 110.464844 148.695312 110.324219 148.679688 110.1875 148.699219 C 109.492188 148.339844 108.621094 148.367188 107.929688 148.84375 L 73.429688 172.636719 C 72.429688 173.324219 72.179688 174.695312 72.871094 175.695312 Z M 132.101562 150.117188 C 131.996094 150.117188 131.890625 150.09375 131.792969 150.046875 L 111.378906 140.25 C 111.359375 140.925781 111.03125 141.582031 110.429688 141.996094 L 75.929688 165.789062 C 75.550781 166.054688 75.113281 166.179688 74.683594 166.179688 C 73.984375 166.179688 73.296875 165.847656 72.871094 165.226562 C 72.179688 164.226562 72.429688 162.855469 73.429688 162.167969 L 107.929688 138.375 C 108.621094 137.898438 109.492188 137.871094 110.1875 138.230469 C 110.324219 138.207031 110.464844 138.226562 110.597656 138.292969 L 132.410156 148.761719 C 132.765625 148.929688 132.914062 149.355469 132.746094 149.710938 C 132.621094 149.96875 132.367188 150.117188 132.101562 150.117188 "/></g><g style="fill:#000000;fill-opacity:1;"><g transform="translate(149.675451, 169.495666)"><path style="stroke:none" d="M 26.5 -22.1875 C 25.863281 -22.164062 25.375 -22.085938 25.03125 -21.953125 C 24.695312 -21.828125 24.425781 -21.554688 24.21875 -21.140625 C 24.007812 -20.722656 23.878906 -20.054688 23.828125 -19.140625 L 22.78125 0.34375 L 19.8125 0.34375 L 9.375 -14.03125 C 8.726562 -14.945312 8.132812 -15.820312 7.59375 -16.65625 L 7.5625 -16.65625 L 7.0625 -5.734375 C 7 -4.410156 6.894531 -3.363281 6.75 -2.59375 C 7.519531 -2.65625 8.410156 -2.6875 9.421875 -2.6875 L 9.234375 0 L 1.265625 0 L 1.40625 -2.3125 C 2.03125 -2.332031 2.507812 -2.40625 2.84375 -2.53125 C 3.1875 -2.664062 3.460938 -2.941406 3.671875 -3.359375 C 3.878906 -3.773438 4.007812 -4.441406 4.0625 -5.359375 L 4.65625 -18.765625 C 4.726562 -20.085938 4.832031 -21.132812 4.96875 -21.90625 L 2.3125 -21.8125 L 2.484375 -24.5 L 7.984375 -24.5 L 17.953125 -10.953125 C 18.535156 -10.140625 19.296875 -9.019531 20.234375 -7.59375 L 20.265625 -7.59375 L 20.828125 -18.765625 C 20.898438 -20.085938 21.003906 -21.132812 21.140625 -21.90625 L 18.484375 -21.8125 L 18.65625 -24.5 L 26.59375 -24.5 Z M 26.5 -22.1875 "/></g></g><g style="fill:#000000;fill-opacity:1;"><g transform="translate(180.32933, 169.495666)"><path style="stroke:none" d="M 19.78125 -17.703125 L 17.5 -17.703125 C 17.570312 -19.429688 17.207031 -20.628906 16.40625 -21.296875 C 15.613281 -21.960938 14.632812 -22.269531 13.46875 -22.21875 L 12.21875 -22.1875 C 11.65625 -22.164062 11.203125 -22.085938 10.859375 -21.953125 C 10.523438 -21.828125 10.257812 -21.539062 10.0625 -21.09375 C 9.863281 -20.65625 9.738281 -20.003906 9.6875 -19.140625 L 9.375 -13.0625 L 13.015625 -13.0625 C 12.992188 -13.519531 12.988281 -13.929688 13 -14.296875 C 13.007812 -14.660156 13.015625 -14.957031 13.015625 -15.1875 L 13.015625 -16.0625 L 15.71875 -16.0625 L 15.265625 -7.5625 L 12.953125 -7.5625 C 12.992188 -8.488281 12.878906 -9.179688 12.609375 -9.640625 C 12.347656 -10.097656 11.984375 -10.382812 11.515625 -10.5 C 11.046875 -10.613281 10.4375 -10.660156 9.6875 -10.640625 L 9.28125 -10.640625 L 9 -5.734375 C 8.90625 -4.222656 8.8125 -3.175781 8.71875 -2.59375 C 9.4375 -2.65625 10.460938 -2.6875 11.796875 -2.6875 L 11.65625 0 L 1.21875 0 L 1.359375 -2.3125 C 1.972656 -2.332031 2.445312 -2.40625 2.78125 -2.53125 C 3.125 -2.664062 3.398438 -2.941406 3.609375 -3.359375 C 3.816406 -3.773438 3.941406 -4.441406 3.984375 -5.359375 L 4.6875 -18.765625 C 4.757812 -20.085938 4.863281 -21.132812 5 -21.90625 L 2.375 -21.8125 L 2.515625 -24.5 L 19.953125 -24.5 Z M 19.78125 -17.703125 "/></g></g><g style="fill:#000000;fill-opacity:1;"><g transform="translate(203.774828, 169.495666)"><path style="stroke:none" d="M 14.203125 -25.0625 C 15.210938 -25.0625 16.347656 -24.910156 17.609375 -24.609375 C 18.867188 -24.304688 19.914062 -23.882812 20.75 -23.34375 L 20.796875 -23.34375 L 20.75 -24.8125 L 23.453125 -24.8125 L 23.03125 -16.65625 L 20.71875 -16.65625 C 20.507812 -18.550781 19.847656 -20 18.734375 -21 C 17.628906 -22 16.238281 -22.515625 14.5625 -22.546875 C 12.90625 -22.546875 11.488281 -22.019531 10.3125 -20.96875 C 9.132812 -19.914062 8.242188 -18.546875 7.640625 -16.859375 C 7.046875 -15.179688 6.75 -13.410156 6.75 -11.546875 C 6.75 -8.722656 7.347656 -6.457031 8.546875 -4.75 C 9.753906 -3.050781 11.457031 -2.203125 13.65625 -2.203125 C 14.394531 -2.203125 15.269531 -2.289062 16.28125 -2.46875 C 17.300781 -2.644531 18.113281 -2.875 18.71875 -3.15625 L 18.90625 -6.40625 C 19 -7.925781 19.09375 -8.976562 19.1875 -9.5625 C 18.570312 -9.507812 18 -9.484375 17.46875 -9.484375 L 16.5625 -9.453125 L 16.6875 -12.140625 L 25.90625 -12.140625 L 25.796875 -9.828125 C 25.210938 -9.804688 24.753906 -9.722656 24.421875 -9.578125 C 24.097656 -9.441406 23.84375 -9.15625 23.65625 -8.71875 C 23.46875 -8.289062 23.351562 -7.648438 23.3125 -6.796875 L 23.03125 -1.1875 L 22.15625 -1.1875 C 21.613281 -1.1875 21.085938 -1.128906 20.578125 -1.015625 C 20.066406 -0.898438 19.367188 -0.710938 18.484375 -0.453125 C 17.285156 -0.128906 16.269531 0.117188 15.4375 0.296875 C 14.613281 0.472656 13.679688 0.5625 12.640625 0.5625 C 10.273438 0.5625 8.238281 0.0625 6.53125 -0.9375 C 4.832031 -1.945312 3.539062 -3.328125 2.65625 -5.078125 C 1.769531 -6.828125 1.328125 -8.796875 1.328125 -10.984375 C 1.328125 -13.296875 1.820312 -15.53125 2.8125 -17.6875 C 3.8125 -19.851562 5.285156 -21.625 7.234375 -23 C 9.179688 -24.375 11.503906 -25.0625 14.203125 -25.0625 Z M 14.203125 -25.0625 "/></g></g><g style="fill:#004aad;fill-opacity:1;"><g transform="translate(149.503842, 191.656885)"><path style="stroke:none" d="M 8.296875 -7.15625 L 6.875 0 L 5.5 0 L 2.828125 -4.484375 L 1.9375 0 L 0.296875 0 L 1.734375 -7.15625 L 3.09375 -7.15625 L 5.765625 -2.671875 L 6.65625 -7.15625 Z M 8.296875 -7.15625 "/></g></g><g style="fill:#004aad;fill-opacity:1;"><g transform="translate(159.290506, 191.656885)"><path style="stroke:none" d="M 4.015625 0.125 C 3.296875 0.125 2.671875 -0.00390625 2.140625 -0.265625 C 1.617188 -0.523438 1.21875 -0.890625 0.9375 -1.359375 C 0.65625 -1.828125 0.515625 -2.367188 0.515625 -2.984375 C 0.515625 -3.796875 0.703125 -4.523438 1.078125 -5.171875 C 1.453125 -5.828125 1.972656 -6.34375 2.640625 -6.71875 C 3.316406 -7.09375 4.085938 -7.28125 4.953125 -7.28125 C 5.671875 -7.28125 6.289062 -7.148438 6.8125 -6.890625 C 7.34375 -6.640625 7.742188 -6.273438 8.015625 -5.796875 C 8.296875 -5.328125 8.4375 -4.785156 8.4375 -4.171875 C 8.4375 -3.359375 8.25 -2.625 7.875 -1.96875 C 7.507812 -1.320312 6.988281 -0.8125 6.3125 -0.4375 C 5.644531 -0.0625 4.878906 0.125 4.015625 0.125 Z M 4.15625 -1.296875 C 4.675781 -1.296875 5.132812 -1.421875 5.53125 -1.671875 C 5.925781 -1.921875 6.226562 -2.253906 6.4375 -2.671875 C 6.65625 -3.097656 6.765625 -3.566406 6.765625 -4.078125 C 6.765625 -4.628906 6.59375 -5.066406 6.25 -5.390625 C 5.90625 -5.710938 5.425781 -5.875 4.8125 -5.875 C 4.28125 -5.875 3.816406 -5.742188 3.421875 -5.484375 C 3.023438 -5.234375 2.722656 -4.894531 2.515625 -4.46875 C 2.304688 -4.050781 2.203125 -3.585938 2.203125 -3.078125 C 2.203125 -2.535156 2.367188 -2.101562 2.703125 -1.78125 C 3.046875 -1.457031 3.53125 -1.296875 4.15625 -1.296875 Z M 4.15625 -1.296875 "/></g></g><g style="fill:#004aad;fill-opacity:1;"><g transform="translate(169.445684, 191.656885)"><path style="stroke:none" d="M 7.453125 -4.9375 C 7.453125 -4.269531 7.269531 -3.695312 6.90625 -3.21875 C 6.539062 -2.738281 6.039062 -2.398438 5.40625 -2.203125 L 6.65625 0 L 4.90625 0 L 3.78125 -2 L 2.359375 -2 L 1.96875 0 L 0.296875 0 L 1.734375 -7.15625 L 4.640625 -7.15625 C 5.535156 -7.15625 6.226562 -6.960938 6.71875 -6.578125 C 7.207031 -6.191406 7.453125 -5.644531 7.453125 -4.9375 Z M 4.03125 -3.328125 C 4.582031 -3.328125 5.007812 -3.453125 5.3125 -3.703125 C 5.613281 -3.953125 5.765625 -4.316406 5.765625 -4.796875 C 5.765625 -5.128906 5.648438 -5.378906 5.421875 -5.546875 C 5.191406 -5.722656 4.863281 -5.8125 4.4375 -5.8125 L 3.125 -5.8125 L 2.625 -3.328125 Z M 4.03125 -3.328125 "/></g></g><g style="fill:#004aad;fill-opacity:1;"><g transform="translate(178.485089, 191.656885)"><path style="stroke:none" d="M 2.9375 -5.8125 L 0.640625 -5.8125 L 0.921875 -7.15625 L 7.15625 -7.15625 L 6.890625 -5.8125 L 4.609375 -5.8125 L 3.4375 0 L 1.78125 0 Z M 2.9375 -5.8125 "/></g></g><g style="fill:#004aad;fill-opacity:1;"><g transform="translate(186.326826, 191.656885)"><path style="stroke:none" d="M 8.296875 -7.15625 L 6.875 0 L 5.203125 0 L 5.796875 -2.921875 L 2.546875 -2.921875 L 1.96875 0 L 0.296875 0 L 1.734375 -7.15625 L 3.390625 -7.15625 L 2.828125 -4.34375 L 6.078125 -4.34375 L 6.640625 -7.15625 Z M 8.296875 -7.15625 "/></g></g><g style="fill:#004aad;fill-opacity:1;"><g transform="translate(196.11349, 191.656885)"><path style="stroke:none" d="M 3.109375 -5.828125 L 2.796875 -4.28125 L 6.125 -4.28125 L 5.875 -2.984375 L 2.53125 -2.984375 L 2.203125 -1.328125 L 6.125 -1.328125 L 5.84375 0 L 0.296875 0 L 1.734375 -7.15625 L 7.140625 -7.15625 L 6.875 -5.828125 Z M 3.109375 -5.828125 "/></g></g><g style="fill:#004aad;fill-opacity:1;"><g transform="translate(204.497761, 191.656885)"><path style="stroke:none" d="M 7.453125 -4.9375 C 7.453125 -4.269531 7.269531 -3.695312 6.90625 -3.21875 C 6.539062 -2.738281 6.039062 -2.398438 5.40625 -2.203125 L 6.65625 0 L 4.90625 0 L 3.78125 -2 L 2.359375 -2 L 1.96875 0 L 0.296875 0 L 1.734375 -7.15625 L 4.640625 -7.15625 C 5.535156 -7.15625 6.226562 -6.960938 6.71875 -6.578125 C 7.207031 -6.191406 7.453125 -5.644531 7.453125 -4.9375 Z M 4.03125 -3.328125 C 4.582031 -3.328125 5.007812 -3.453125 5.3125 -3.703125 C 5.613281 -3.953125 5.765625 -4.316406 5.765625 -4.796875 C 5.765625 -5.128906 5.648438 -5.378906 5.421875 -5.546875 C 5.191406 -5.722656 4.863281 -5.8125 4.4375 -5.8125 L 3.125 -5.8125 L 2.625 -3.328125 Z M 4.03125 -3.328125 "/></g></g><g style="fill:#004aad;fill-opacity:1;"><g transform="translate(213.537166, 191.656885)"><path style="stroke:none" d="M 8.296875 -7.15625 L 6.875 0 L 5.5 0 L 2.828125 -4.484375 L 1.9375 0 L 0.296875 0 L 1.734375 -7.15625 L 3.09375 -7.15625 L 5.765625 -2.671875 L 6.65625 -7.15625 Z M 8.296875 -7.15625 "/></g></g><g style="fill:#004aad;fill-opacity:1;"><g transform="translate(223.32383, 191.656885)"><path style="stroke:none" d=""/></g></g><g style="fill:#004aad;fill-opacity:1;"><g transform="translate(227.736353, 191.656885)"><path style="stroke:none" d="M 3.125 -5.828125 L 2.75 -3.9375 L 6.0625 -3.9375 L 5.796875 -2.609375 L 2.484375 -2.609375 L 1.96875 0 L 0.296875 0 L 1.734375 -7.15625 L 7.140625 -7.15625 L 6.875 -5.828125 Z M 3.125 -5.828125 "/></g></g><g style="fill:#004aad;fill-opacity:1;"><g transform="translate(235.793058, 191.656885)"><path style="stroke:none" d="M 5.390625 -1.53125 L 2.0625 -1.53125 L 1.125 0 L -0.640625 0 L 3.984375 -7.15625 L 5.625 -7.15625 L 7.390625 0 L 5.734375 0 Z M 5.109375 -2.796875 L 4.515625 -5.5625 L 2.828125 -2.796875 Z M 5.109375 -2.796875 "/></g></g><g style="fill:#004aad;fill-opacity:1;"><g transform="translate(245.149787, 191.656885)"><path style="stroke:none" d="M 4.0625 0.125 C 3.34375 0.125 2.710938 -0.00390625 2.171875 -0.265625 C 1.640625 -0.523438 1.226562 -0.890625 0.9375 -1.359375 C 0.65625 -1.828125 0.515625 -2.367188 0.515625 -2.984375 C 0.515625 -3.796875 0.703125 -4.523438 1.078125 -5.171875 C 1.453125 -5.828125 1.972656 -6.34375 2.640625 -6.71875 C 3.316406 -7.09375 4.09375 -7.28125 4.96875 -7.28125 C 5.613281 -7.28125 6.179688 -7.171875 6.671875 -6.953125 C 7.160156 -6.734375 7.53125 -6.421875 7.78125 -6.015625 L 6.59375 -5.03125 C 6.207031 -5.59375 5.628906 -5.875 4.859375 -5.875 C 4.335938 -5.875 3.875 -5.75 3.46875 -5.5 C 3.0625 -5.257812 2.75 -4.925781 2.53125 -4.5 C 2.3125 -4.082031 2.203125 -3.613281 2.203125 -3.09375 C 2.203125 -2.539062 2.375 -2.101562 2.71875 -1.78125 C 3.070312 -1.457031 3.566406 -1.296875 4.203125 -1.296875 C 4.960938 -1.296875 5.597656 -1.570312 6.109375 -2.125 L 7.09375 -1.109375 C 6.382812 -0.285156 5.375 0.125 4.0625 0.125 Z M 4.0625 0.125 "/></g></g><g style="fill:#004aad;fill-opacity:1;"><g transform="translate(254.168718, 191.656885)"><path style="stroke:none" d="M 1.734375 -7.15625 L 3.390625 -7.15625 L 1.96875 0 L 0.296875 0 Z M 1.734375 -7.15625 "/></g></g><g style="fill:#004aad;fill-opacity:1;"><g transform="translate(259.041881, 191.656885)"><path style="stroke:none" d="M 1.734375 -7.15625 L 3.390625 -7.15625 L 2.234375 -1.34375 L 5.828125 -1.34375 L 5.546875 0 L 0.296875 0 Z M 1.734375 -7.15625 "/></g></g><g style="fill:#004aad;fill-opacity:1;"><g transform="translate(266.740303, 191.656885)"><path style="stroke:none" d="M 1.734375 -7.15625 L 3.390625 -7.15625 L 1.96875 0 L 0.296875 0 Z M 1.734375 -7.15625 "/></g></g><g style="fill:#004aad;fill-opacity:1;"><g transform="translate(271.613466, 191.656885)"><path style="stroke:none" d="M 2.9375 -5.8125 L 0.640625 -5.8125 L 0.921875 -7.15625 L 7.15625 -7.15625 L 6.890625 -5.8125 L 4.609375 -5.8125 L 3.4375 0 L 1.78125 0 Z M 2.9375 -5.8125 "/></g></g><g style="fill:#004aad;fill-opacity:1;"><g transform="translate(279.455203, 191.656885)"><path style="stroke:none" d="M 1.734375 -7.15625 L 3.390625 -7.15625 L 1.96875 0 L 0.296875 0 Z M 1.734375 -7.15625 "/></g></g><g style="fill:#004aad;fill-opacity:1;"><g transform="translate(284.328366, 191.656885)"><path style="stroke:none" d="M 3.109375 -5.828125 L 2.796875 -4.28125 L 6.125 -4.28125 L 5.875 -2.984375 L 2.53125 -2.984375 L 2.203125 -1.328125 L 6.125 -1.328125 L 5.84375 0 L 0.296875 0 L 1.734375 -7.15625 L 7.140625 -7.15625 L 6.875 -5.828125 Z M 3.109375 -5.828125 "/></g></g><g style="fill:#004aad;fill-opacity:1;"><g transform="translate(292.712638, 191.656885)"><path style="stroke:none" d="M 2.796875 0.125 C 2.222656 0.125 1.675781 0.0507812 1.15625 -0.09375 C 0.644531 -0.25 0.234375 -0.441406 -0.078125 -0.671875 L 0.59375 -1.953125 C 0.914062 -1.710938 1.28125 -1.523438 1.6875 -1.390625 C 2.101562 -1.265625 2.523438 -1.203125 2.953125 -1.203125 C 3.410156 -1.203125 3.769531 -1.273438 4.03125 -1.421875 C 4.300781 -1.578125 4.4375 -1.785156 4.4375 -2.046875 C 4.4375 -2.253906 4.332031 -2.414062 4.125 -2.53125 C 3.914062 -2.644531 3.578125 -2.765625 3.109375 -2.890625 C 2.648438 -3.023438 2.269531 -3.15625 1.96875 -3.28125 C 1.675781 -3.414062 1.421875 -3.609375 1.203125 -3.859375 C 0.992188 -4.109375 0.890625 -4.441406 0.890625 -4.859375 C 0.890625 -5.347656 1.023438 -5.773438 1.296875 -6.140625 C 1.566406 -6.503906 1.945312 -6.785156 2.4375 -6.984375 C 2.9375 -7.179688 3.515625 -7.28125 4.171875 -7.28125 C 4.648438 -7.28125 5.101562 -7.226562 5.53125 -7.125 C 5.96875 -7.019531 6.335938 -6.867188 6.640625 -6.671875 L 6.015625 -5.40625 C 5.753906 -5.59375 5.453125 -5.726562 5.109375 -5.8125 C 4.773438 -5.90625 4.429688 -5.953125 4.078125 -5.953125 C 3.597656 -5.953125 3.222656 -5.867188 2.953125 -5.703125 C 2.679688 -5.546875 2.546875 -5.335938 2.546875 -5.078125 C 2.546875 -4.921875 2.601562 -4.789062 2.71875 -4.6875 C 2.832031 -4.582031 2.976562 -4.492188 3.15625 -4.421875 C 3.332031 -4.359375 3.582031 -4.285156 3.90625 -4.203125 C 4.363281 -4.078125 4.738281 -3.953125 5.03125 -3.828125 C 5.320312 -3.703125 5.570312 -3.515625 5.78125 -3.265625 C 5.988281 -3.023438 6.09375 -2.707031 6.09375 -2.3125 C 6.09375 -1.820312 5.957031 -1.394531 5.6875 -1.03125 C 5.414062 -0.664062 5.03125 -0.378906 4.53125 -0.171875 C 4.03125 0.0234375 3.453125 0.125 2.796875 0.125 Z M 2.796875 0.125 "/></g></g><g style="fill:#004aad;fill-opacity:1;"><g transform="translate(300.7591, 191.656885)"><path style="stroke:none" d=""/></g></g><g style="fill:#004aad;fill-opacity:1;"><g transform="translate(305.171623, 191.656885)"><path style="stroke:none" d="M 5.890625 -3.6875 L 7.40625 -3.6875 L 6.8125 -0.75 C 6.445312 -0.46875 6.023438 -0.25 5.546875 -0.09375 C 5.066406 0.0507812 4.570312 0.125 4.0625 0.125 C 3.34375 0.125 2.71875 -0.00390625 2.1875 -0.265625 C 1.65625 -0.523438 1.242188 -0.890625 0.953125 -1.359375 C 0.660156 -1.828125 0.515625 -2.367188 0.515625 -2.984375 C 0.515625 -3.796875 0.703125 -4.53125 1.078125 -5.1875 C 1.453125 -5.84375 1.976562 -6.351562 2.65625 -6.71875 C 3.34375 -7.09375 4.132812 -7.28125 5.03125 -7.28125 C 5.707031 -7.28125 6.296875 -7.175781 6.796875 -6.96875 C 7.296875 -6.757812 7.703125 -6.445312 8.015625 -6.03125 L 6.828125 -5.078125 C 6.585938 -5.359375 6.316406 -5.5625 6.015625 -5.6875 C 5.710938 -5.8125 5.359375 -5.875 4.953125 -5.875 C 4.410156 -5.875 3.929688 -5.75 3.515625 -5.5 C 3.097656 -5.257812 2.773438 -4.925781 2.546875 -4.5 C 2.316406 -4.082031 2.203125 -3.613281 2.203125 -3.09375 C 2.203125 -2.539062 2.378906 -2.101562 2.734375 -1.78125 C 3.097656 -1.457031 3.613281 -1.296875 4.28125 -1.296875 C 4.695312 -1.296875 5.09375 -1.378906 5.46875 -1.546875 Z M 5.890625 -3.6875 "/></g></g><g style="fill:#004aad;fill-opacity:1;"><g transform="translate(314.57953, 191.656885)"><path style="stroke:none" d="M 7.453125 -4.9375 C 7.453125 -4.269531 7.269531 -3.695312 6.90625 -3.21875 C 6.539062 -2.738281 6.039062 -2.398438 5.40625 -2.203125 L 6.65625 0 L 4.90625 0 L 3.78125 -2 L 2.359375 -2 L 1.96875 0 L 0.296875 0 L 1.734375 -7.15625 L 4.640625 -7.15625 C 5.535156 -7.15625 6.226562 -6.960938 6.71875 -6.578125 C 7.207031 -6.191406 7.453125 -5.644531 7.453125 -4.9375 Z M 4.03125 -3.328125 C 4.582031 -3.328125 5.007812 -3.453125 5.3125 -3.703125 C 5.613281 -3.953125 5.765625 -4.316406 5.765625 -4.796875 C 5.765625 -5.128906 5.648438 -5.378906 5.421875 -5.546875 C 5.191406 -5.722656 4.863281 -5.8125 4.4375 -5.8125 L 3.125 -5.8125 L 2.625 -3.328125 Z M 4.03125 -3.328125 "/></g></g><g style="fill:#004aad;fill-opacity:1;"><g transform="translate(323.618935, 191.656885)"><path style="stroke:none" d="M 4.015625 0.125 C 3.296875 0.125 2.671875 -0.00390625 2.140625 -0.265625 C 1.617188 -0.523438 1.21875 -0.890625 0.9375 -1.359375 C 0.65625 -1.828125 0.515625 -2.367188 0.515625 -2.984375 C 0.515625 -3.796875 0.703125 -4.523438 1.078125 -5.171875 C 1.453125 -5.828125 1.972656 -6.34375 2.640625 -6.71875 C 3.316406 -7.09375 4.085938 -7.28125 4.953125 -7.28125 C 5.671875 -7.28125 6.289062 -7.148438 6.8125 -6.890625 C 7.34375 -6.640625 7.742188 -6.273438 8.015625 -5.796875 C 8.296875 -5.328125 8.4375 -4.785156 8.4375 -4.171875 C 8.4375 -3.359375 8.25 -2.625 7.875 -1.96875 C 7.507812 -1.320312 6.988281 -0.8125 6.3125 -0.4375 C 5.644531 -0.0625 4.878906 0.125 4.015625 0.125 Z M 4.15625 -1.296875 C 4.675781 -1.296875 5.132812 -1.421875 5.53125 -1.671875 C 5.925781 -1.921875 6.226562 -2.253906 6.4375 -2.671875 C 6.65625 -3.097656 6.765625 -3.566406 6.765625 -4.078125 C 6.765625 -4.628906 6.59375 -5.066406 6.25 -5.390625 C 5.90625 -5.710938 5.425781 -5.875 4.8125 -5.875 C 4.28125 -5.875 3.816406 -5.742188 3.421875 -5.484375 C 3.023438 -5.234375 2.722656 -4.894531 2.515625 -4.46875 C 2.304688 -4.050781 2.203125 -3.585938 2.203125 -3.078125 C 2.203125 -2.535156 2.367188 -2.101562 2.703125 -1.78125 C 3.046875 -1.457031 3.53125 -1.296875 4.15625 -1.296875 Z M 4.15625 -1.296875 "/></g></g><g style="fill:#004aad;fill-opacity:1;"><g transform="translate(333.774113, 191.656885)"><path style="stroke:none" d="M 3.671875 0.125 C 2.773438 0.125 2.066406 -0.0976562 1.546875 -0.546875 C 1.035156 -0.992188 0.78125 -1.609375 0.78125 -2.390625 C 0.78125 -2.609375 0.8125 -2.863281 0.875 -3.15625 L 1.671875 -7.15625 L 3.34375 -7.15625 L 2.53125 -3.1875 C 2.5 -2.957031 2.484375 -2.753906 2.484375 -2.578125 C 2.484375 -2.148438 2.597656 -1.828125 2.828125 -1.609375 C 3.066406 -1.398438 3.410156 -1.296875 3.859375 -1.296875 C 4.359375 -1.296875 4.757812 -1.441406 5.0625 -1.734375 C 5.363281 -2.035156 5.582031 -2.519531 5.71875 -3.1875 L 6.515625 -7.15625 L 8.140625 -7.15625 L 7.34375 -3.078125 C 6.90625 -0.941406 5.679688 0.125 3.671875 0.125 Z M 3.671875 0.125 "/></g></g><g style="fill:#004aad;fill-opacity:1;"><g transform="translate(343.356041, 191.656885)"><path style="stroke:none" d="M 4.625 -7.15625 C 5.519531 -7.15625 6.210938 -6.957031 6.703125 -6.5625 C 7.191406 -6.175781 7.4375 -5.632812 7.4375 -4.9375 C 7.4375 -4.332031 7.289062 -3.804688 7 -3.359375 C 6.71875 -2.910156 6.316406 -2.566406 5.796875 -2.328125 C 5.273438 -2.085938 4.660156 -1.96875 3.953125 -1.96875 L 2.359375 -1.96875 L 1.96875 0 L 0.296875 0 L 1.734375 -7.15625 Z M 4.015625 -3.328125 C 4.566406 -3.328125 4.992188 -3.453125 5.296875 -3.703125 C 5.597656 -3.953125 5.75 -4.316406 5.75 -4.796875 C 5.75 -5.128906 5.632812 -5.378906 5.40625 -5.546875 C 5.175781 -5.722656 4.847656 -5.8125 4.421875 -5.8125 L 3.125 -5.8125 L 2.625 -3.328125 Z M 4.015625 -3.328125 "/></g></g><g style="fill:#004aad;fill-opacity:1;"><g transform="translate(237.000101, 205.481558)"><path style="stroke:none" d="M 1.734375 -7.15625 L 3.390625 -7.15625 L 1.96875 0 L 0.296875 0 Z M 1.734375 -7.15625 "/></g></g><g style="fill:#004aad;fill-opacity:1;"><g transform="translate(241.873264, 205.481558)"><path style="stroke:none" d="M 8.296875 -7.15625 L 6.875 0 L 5.5 0 L 2.828125 -4.484375 L 1.9375 0 L 0.296875 0 L 1.734375 -7.15625 L 3.09375 -7.15625 L 5.765625 -2.671875 L 6.65625 -7.15625 Z M 8.296875 -7.15625 "/></g></g><g style="fill:#004aad;fill-opacity:1;"><g transform="translate(251.659928, 205.481558)"><path style="stroke:none" d="M 4.0625 0.125 C 3.34375 0.125 2.710938 -0.00390625 2.171875 -0.265625 C 1.640625 -0.523438 1.226562 -0.890625 0.9375 -1.359375 C 0.65625 -1.828125 0.515625 -2.367188 0.515625 -2.984375 C 0.515625 -3.796875 0.703125 -4.523438 1.078125 -5.171875 C 1.453125 -5.828125 1.972656 -6.34375 2.640625 -6.71875 C 3.316406 -7.09375 4.09375 -7.28125 4.96875 -7.28125 C 5.613281 -7.28125 6.179688 -7.171875 6.671875 -6.953125 C 7.160156 -6.734375 7.53125 -6.421875 7.78125 -6.015625 L 6.59375 -5.03125 C 6.207031 -5.59375 5.628906 -5.875 4.859375 -5.875 C 4.335938 -5.875 3.875 -5.75 3.46875 -5.5 C 3.0625 -5.257812 2.75 -4.925781 2.53125 -4.5 C 2.3125 -4.082031 2.203125 -3.613281 2.203125 -3.09375 C 2.203125 -2.539062 2.375 -2.101562 2.71875 -1.78125 C 3.070312 -1.457031 3.566406 -1.296875 4.203125 -1.296875 C 4.960938 -1.296875 5.597656 -1.570312 6.109375 -2.125 L 7.09375 -1.109375 C 6.382812 -0.285156 5.375 0.125 4.0625 0.125 Z M 4.0625 0.125 "/></g></g><g style="fill:#004aad;fill-opacity:1;"><g transform="translate(260.678859, 205.481558)"><path style="stroke:none" d="M 0.921875 0.078125 C 0.648438 0.078125 0.425781 -0.00390625 0.25 -0.171875 C 0.0703125 -0.347656 -0.015625 -0.570312 -0.015625 -0.84375 C -0.015625 -1.15625 0.0820312 -1.410156 0.28125 -1.609375 C 0.488281 -1.804688 0.742188 -1.90625 1.046875 -1.90625 C 1.316406 -1.90625 1.535156 -1.816406 1.703125 -1.640625 C 1.878906 -1.472656 1.96875 -1.253906 1.96875 -0.984375 C 1.96875 -0.671875 1.863281 -0.414062 1.65625 -0.21875 C 1.445312 -0.0195312 1.203125 0.078125 0.921875 0.078125 Z M 0.921875 0.078125 "/></g></g><path style="fill:none;stroke-width:2;stroke-linecap:butt;stroke-linejoin:miter;stroke:#000000;stroke-opacity:1;stroke-miterlimit:4;" d="M -0.00118483 1.000544 L 281.556125 1.000544 " transform="matrix(0.75,-0.000000000000000093,0.000000000000000093,0.75,141.329014,177.245686)"/></g></svg>