<svg xmlns="http://www.w3.org/2000/svg" xmlns:xlink="http://www.w3.org/1999/xlink" width="500" zoomAndPan="magnify" viewBox="0 0 375 374.999991" height="500" preserveAspectRatio="xMidYMid meet" version="1.2"><defs><clipPath id="1ccc8b32c3"><path d="M 145 115.34375 L 229.734375 115.34375 L 229.734375 213.59375 L 145 213.59375 Z M 145 115.34375 "/></clipPath></defs><g id="3b79ceb329"><g clip-rule="nonzero" clip-path="url(#1ccc8b32c3)"><path style=" stroke:none;fill-rule:nonzero;fill:#004aad;fill-opacity:1;" d="M 145.957031 211.921875 C 146.550781 212.785156 147.511719 213.25 148.484375 213.25 C 149.085938 213.25 149.695312 213.074219 150.226562 212.707031 L 198.355469 179.515625 C 199.191406 178.9375 199.648438 178.019531 199.675781 177.074219 L 228.15625 190.746094 C 228.292969 190.8125 228.441406 190.84375 228.585938 190.84375 C 228.957031 190.84375 229.3125 190.636719 229.484375 190.277344 C 229.71875 189.78125 229.511719 189.1875 229.015625 188.949219 L 198.589844 174.34375 C 198.40625 174.257812 198.207031 174.230469 198.015625 174.257812 C 197.042969 173.757812 195.832031 173.796875 194.867188 174.460938 L 146.742188 207.652344 C 145.34375 208.613281 144.992188 210.523438 145.957031 211.921875 Z M 145.957031 197.316406 C 146.550781 198.179688 147.511719 198.644531 148.484375 198.644531 C 149.085938 198.644531 149.695312 198.46875 150.226562 198.101562 L 198.355469 164.910156 C 199.191406 164.332031 199.648438 163.414062 199.675781 162.472656 L 228.15625 176.140625 C 228.292969 176.207031 228.441406 176.238281 228.585938 176.238281 C 228.957031 176.238281 229.3125 176.03125 229.484375 175.675781 C 229.71875 175.179688 229.511719 174.582031 229.015625 174.34375 L 198.589844 159.742188 C 198.40625 159.652344 198.207031 159.625 198.015625 159.652344 C 197.042969 159.152344 195.832031 159.191406 194.867188 159.855469 L 146.742188 193.046875 C 145.34375 194.007812 144.992188 195.921875 145.957031 197.316406 Z M 145.957031 182.714844 C 146.550781 183.578125 147.511719 184.039062 148.484375 184.039062 C 149.085938 184.039062 149.695312 183.863281 150.226562 183.496094 L 198.355469 150.304688 C 199.191406 149.730469 199.648438 148.8125 199.675781 147.867188 L 228.15625 161.535156 C 228.292969 161.601562 228.441406 161.632812 228.585938 161.632812 C 228.957031 161.632812 229.3125 161.425781 229.484375 161.070312 C 229.71875 160.574219 229.511719 159.976562 229.015625 159.742188 L 198.589844 145.136719 C 198.40625 145.046875 198.207031 145.019531 198.015625 145.050781 C 197.042969 144.546875 195.832031 144.585938 194.867188 145.25 L 146.742188 178.441406 C 145.34375 179.40625 144.992188 181.316406 145.957031 182.714844 Z M 145.957031 168.109375 C 146.550781 168.972656 147.511719 169.4375 148.484375 169.4375 C 149.085938 169.4375 149.695312 169.261719 150.226562 168.894531 L 198.355469 135.699219 C 199.191406 135.125 199.648438 134.207031 199.675781 133.261719 L 228.15625 146.933594 C 228.292969 147 228.441406 147.03125 228.585938 147.03125 C 228.957031 147.03125 229.3125 146.820312 229.484375 146.464844 C 229.71875 145.96875 229.511719 145.375 229.015625 145.136719 L 198.589844 130.53125 C 198.40625 130.441406 198.207031 130.417969 198.015625 130.445312 C 197.042969 129.945312 195.832031 129.980469 194.867188 130.644531 L 146.742188 163.839844 C 145.34375 164.800781 144.992188 166.714844 145.957031 168.109375 Z M 228.585938 132.425781 C 228.441406 132.425781 228.292969 132.394531 228.15625 132.328125 L 199.675781 118.660156 C 199.648438 119.601562 199.191406 120.519531 198.355469 121.097656 L 150.226562 154.289062 C 149.695312 154.65625 149.085938 154.832031 148.484375 154.832031 C 147.511719 154.832031 146.550781 154.367188 145.957031 153.503906 C 144.992188 152.109375 145.34375 150.195312 146.742188 149.234375 L 194.867188 116.042969 C 195.832031 115.378906 197.042969 115.339844 198.015625 115.839844 C 198.207031 115.8125 198.40625 115.839844 198.589844 115.929688 L 229.015625 130.53125 C 229.511719 130.769531 229.71875 131.363281 229.484375 131.859375 C 229.3125 132.21875 228.957031 132.425781 228.585938 132.425781 "/></g><g style="fill:#000000;fill-opacity:1;"><g transform="translate(144.916171, 249.6335)"><path style="stroke:none" d="M 28.015625 -23.453125 C 27.347656 -23.429688 26.832031 -23.351562 26.46875 -23.21875 C 26.113281 -23.082031 25.820312 -22.789062 25.59375 -22.34375 C 25.375 -21.90625 25.242188 -21.203125 25.203125 -20.234375 L 24.09375 0.375 L 20.9375 0.375 L 9.921875 -14.84375 C 9.222656 -15.800781 8.59375 -16.722656 8.03125 -17.609375 L 7.984375 -17.609375 L 7.46875 -6.0625 C 7.394531 -4.65625 7.285156 -3.546875 7.140625 -2.734375 C 7.953125 -2.804688 8.890625 -2.84375 9.953125 -2.84375 L 9.765625 0 L 1.328125 0 L 1.484375 -2.4375 C 2.148438 -2.46875 2.660156 -2.550781 3.015625 -2.6875 C 3.367188 -2.820312 3.65625 -3.109375 3.875 -3.546875 C 4.101562 -3.992188 4.242188 -4.695312 4.296875 -5.65625 L 4.921875 -19.828125 C 4.992188 -21.234375 5.101562 -22.34375 5.25 -23.15625 L 2.4375 -23.046875 L 2.625 -25.90625 L 8.4375 -25.90625 L 18.984375 -11.578125 C 19.597656 -10.710938 20.398438 -9.53125 21.390625 -8.03125 L 21.421875 -8.03125 L 22.015625 -19.828125 C 22.085938 -21.234375 22.195312 -22.34375 22.34375 -23.15625 L 19.53125 -23.046875 L 19.71875 -25.90625 L 28.125 -25.90625 Z M 28.015625 -23.453125 "/></g></g><g style="fill:#000000;fill-opacity:1;"><g transform="translate(177.325104, 249.6335)"><path style="stroke:none" d="M 20.90625 -18.71875 L 18.5 -18.71875 C 18.570312 -20.539062 18.1875 -21.800781 17.34375 -22.5 C 16.507812 -23.207031 15.476562 -23.539062 14.25 -23.5 L 12.90625 -23.453125 C 12.320312 -23.429688 11.847656 -23.351562 11.484375 -23.21875 C 11.128906 -23.082031 10.847656 -22.78125 10.640625 -22.3125 C 10.429688 -21.84375 10.300781 -21.148438 10.25 -20.234375 L 9.921875 -13.796875 L 13.765625 -13.796875 C 13.742188 -14.296875 13.738281 -14.734375 13.75 -15.109375 C 13.757812 -15.492188 13.765625 -15.8125 13.765625 -16.0625 L 13.765625 -16.984375 L 16.609375 -16.984375 L 16.125 -7.984375 L 13.6875 -7.984375 C 13.738281 -8.972656 13.617188 -9.707031 13.328125 -10.1875 C 13.046875 -10.675781 12.660156 -10.976562 12.171875 -11.09375 C 11.679688 -11.21875 11.039062 -11.269531 10.25 -11.25 L 9.8125 -11.25 L 9.515625 -6.0625 C 9.410156 -4.457031 9.3125 -3.347656 9.21875 -2.734375 C 9.976562 -2.804688 11.0625 -2.84375 12.46875 -2.84375 L 12.328125 0 L 1.296875 0 L 1.4375 -2.4375 C 2.082031 -2.46875 2.582031 -2.550781 2.9375 -2.6875 C 3.300781 -2.820312 3.59375 -3.109375 3.8125 -3.546875 C 4.03125 -3.992188 4.164062 -4.695312 4.21875 -5.65625 L 4.953125 -19.828125 C 5.023438 -21.234375 5.140625 -22.34375 5.296875 -23.15625 L 2.515625 -23.046875 L 2.65625 -25.90625 L 21.09375 -25.90625 Z M 20.90625 -18.71875 "/></g></g><g style="fill:#000000;fill-opacity:1;"><g transform="translate(202.112845, 249.6335)"><path style="stroke:none" d="M 15.015625 -26.484375 C 16.078125 -26.484375 17.273438 -26.320312 18.609375 -26 C 19.941406 -25.6875 21.050781 -25.242188 21.9375 -24.671875 L 21.984375 -24.671875 L 21.9375 -26.234375 L 24.796875 -26.234375 L 24.34375 -17.609375 L 21.90625 -17.609375 C 21.6875 -19.609375 20.988281 -21.140625 19.8125 -22.203125 C 18.644531 -23.265625 17.171875 -23.804688 15.390625 -23.828125 C 13.640625 -23.828125 12.140625 -23.269531 10.890625 -22.15625 C 9.648438 -21.050781 8.710938 -19.609375 8.078125 -17.828125 C 7.453125 -16.054688 7.140625 -14.179688 7.140625 -12.203125 C 7.140625 -9.222656 7.773438 -6.832031 9.046875 -5.03125 C 10.316406 -3.226562 12.113281 -2.328125 14.4375 -2.328125 C 15.21875 -2.328125 16.144531 -2.421875 17.21875 -2.609375 C 18.289062 -2.796875 19.148438 -3.035156 19.796875 -3.328125 L 19.984375 -6.765625 C 20.078125 -8.367188 20.175781 -9.476562 20.28125 -10.09375 C 19.632812 -10.050781 19.03125 -10.03125 18.46875 -10.03125 L 17.5 -9.984375 L 17.65625 -12.84375 L 27.375 -12.84375 L 27.265625 -10.390625 C 26.648438 -10.367188 26.171875 -10.285156 25.828125 -10.140625 C 25.484375 -9.992188 25.210938 -9.691406 25.015625 -9.234375 C 24.816406 -8.773438 24.691406 -8.085938 24.640625 -7.171875 L 24.34375 -1.265625 L 23.421875 -1.265625 C 22.847656 -1.265625 22.289062 -1.203125 21.75 -1.078125 C 21.207031 -0.953125 20.46875 -0.753906 19.53125 -0.484375 C 18.28125 -0.140625 17.210938 0.125 16.328125 0.3125 C 15.453125 0.5 14.460938 0.59375 13.359375 0.59375 C 10.867188 0.59375 8.722656 0.0625 6.921875 -1 C 5.117188 -2.0625 3.75 -3.515625 2.8125 -5.359375 C 1.875 -7.210938 1.40625 -9.300781 1.40625 -11.625 C 1.40625 -14.0625 1.925781 -16.421875 2.96875 -18.703125 C 4.019531 -20.984375 5.578125 -22.847656 7.640625 -24.296875 C 9.703125 -25.753906 12.160156 -26.484375 15.015625 -26.484375 Z M 15.015625 -26.484375 "/></g></g><g style="fill:#004aad;fill-opacity:1;"><g transform="translate(89.185355, 267.433518)"><path style="stroke:none" d="M 8.109375 -7 L 6.703125 0 L 5.375 0 L 2.765625 -4.375 L 1.890625 0 L 0.296875 0 L 1.6875 -7 L 3.03125 -7 L 5.640625 -2.609375 L 6.515625 -7 Z M 8.109375 -7 "/></g></g><g style="fill:#004aad;fill-opacity:1;"><g transform="translate(98.742178, 267.433518)"><path style="stroke:none" d="M 3.921875 0.125 C 3.222656 0.125 2.613281 0 2.09375 -0.25 C 1.582031 -0.507812 1.191406 -0.867188 0.921875 -1.328125 C 0.648438 -1.785156 0.515625 -2.316406 0.515625 -2.921875 C 0.515625 -3.710938 0.691406 -4.425781 1.046875 -5.0625 C 1.410156 -5.695312 1.921875 -6.195312 2.578125 -6.5625 C 3.234375 -6.9375 3.988281 -7.125 4.84375 -7.125 C 5.539062 -7.125 6.144531 -6.992188 6.65625 -6.734375 C 7.175781 -6.484375 7.570312 -6.128906 7.84375 -5.671875 C 8.113281 -5.210938 8.25 -4.679688 8.25 -4.078125 C 8.25 -3.285156 8.066406 -2.570312 7.703125 -1.9375 C 7.335938 -1.300781 6.828125 -0.796875 6.171875 -0.421875 C 5.515625 -0.0546875 4.765625 0.125 3.921875 0.125 Z M 4.0625 -1.265625 C 4.570312 -1.265625 5.019531 -1.382812 5.40625 -1.625 C 5.789062 -1.875 6.085938 -2.203125 6.296875 -2.609375 C 6.503906 -3.023438 6.609375 -3.484375 6.609375 -3.984375 C 6.609375 -4.523438 6.441406 -4.953125 6.109375 -5.265625 C 5.773438 -5.578125 5.304688 -5.734375 4.703125 -5.734375 C 4.191406 -5.734375 3.738281 -5.609375 3.34375 -5.359375 C 2.957031 -5.117188 2.660156 -4.789062 2.453125 -4.375 C 2.253906 -3.96875 2.15625 -3.515625 2.15625 -3.015625 C 2.15625 -2.472656 2.320312 -2.046875 2.65625 -1.734375 C 2.988281 -1.421875 3.457031 -1.265625 4.0625 -1.265625 Z M 4.0625 -1.265625 "/></g></g><g style="fill:#004aad;fill-opacity:1;"><g transform="translate(108.658861, 267.433518)"><path style="stroke:none" d="M 7.28125 -4.828125 C 7.28125 -4.171875 7.101562 -3.609375 6.75 -3.140625 C 6.394531 -2.679688 5.90625 -2.351562 5.28125 -2.15625 L 6.5 0 L 4.796875 0 L 3.6875 -1.953125 L 2.3125 -1.953125 L 1.921875 0 L 0.296875 0 L 1.6875 -7 L 4.546875 -7 C 5.410156 -7 6.082031 -6.804688 6.5625 -6.421875 C 7.039062 -6.046875 7.28125 -5.515625 7.28125 -4.828125 Z M 3.9375 -3.25 C 4.476562 -3.25 4.894531 -3.367188 5.1875 -3.609375 C 5.488281 -3.859375 5.640625 -4.21875 5.640625 -4.6875 C 5.640625 -5.019531 5.523438 -5.269531 5.296875 -5.4375 C 5.066406 -5.601562 4.742188 -5.6875 4.328125 -5.6875 L 3.046875 -5.6875 L 2.5625 -3.25 Z M 3.9375 -3.25 "/></g></g><g style="fill:#004aad;fill-opacity:1;"><g transform="translate(117.485974, 267.433518)"><path style="stroke:none" d="M 2.875 -5.6875 L 0.625 -5.6875 L 0.90625 -7 L 7 -7 L 6.734375 -5.6875 L 4.5 -5.6875 L 3.359375 0 L 1.734375 0 Z M 2.875 -5.6875 "/></g></g><g style="fill:#004aad;fill-opacity:1;"><g transform="translate(125.143547, 267.433518)"><path style="stroke:none" d="M 8.109375 -7 L 6.703125 0 L 5.09375 0 L 5.65625 -2.84375 L 2.484375 -2.84375 L 1.921875 0 L 0.296875 0 L 1.6875 -7 L 3.3125 -7 L 2.765625 -4.25 L 5.9375 -4.25 L 6.484375 -7 Z M 8.109375 -7 "/></g></g><g style="fill:#004aad;fill-opacity:1;"><g transform="translate(134.70037, 267.433518)"><path style="stroke:none" d="M 3.046875 -5.703125 L 2.734375 -4.1875 L 5.984375 -4.1875 L 5.734375 -2.921875 L 2.484375 -2.921875 L 2.15625 -1.296875 L 5.984375 -1.296875 L 5.703125 0 L 0.296875 0 L 1.6875 -7 L 6.984375 -7 L 6.703125 -5.703125 Z M 3.046875 -5.703125 "/></g></g><g style="fill:#004aad;fill-opacity:1;"><g transform="translate(142.887736, 267.433518)"><path style="stroke:none" d="M 7.28125 -4.828125 C 7.28125 -4.171875 7.101562 -3.609375 6.75 -3.140625 C 6.394531 -2.679688 5.90625 -2.351562 5.28125 -2.15625 L 6.5 0 L 4.796875 0 L 3.6875 -1.953125 L 2.3125 -1.953125 L 1.921875 0 L 0.296875 0 L 1.6875 -7 L 4.546875 -7 C 5.410156 -7 6.082031 -6.804688 6.5625 -6.421875 C 7.039062 -6.046875 7.28125 -5.515625 7.28125 -4.828125 Z M 3.9375 -3.25 C 4.476562 -3.25 4.894531 -3.367188 5.1875 -3.609375 C 5.488281 -3.859375 5.640625 -4.21875 5.640625 -4.6875 C 5.640625 -5.019531 5.523438 -5.269531 5.296875 -5.4375 C 5.066406 -5.601562 4.742188 -5.6875 4.328125 -5.6875 L 3.046875 -5.6875 L 2.5625 -3.25 Z M 3.9375 -3.25 "/></g></g><g style="fill:#004aad;fill-opacity:1;"><g transform="translate(151.71485, 267.433518)"><path style="stroke:none" d="M 8.109375 -7 L 6.703125 0 L 5.375 0 L 2.765625 -4.375 L 1.890625 0 L 0.296875 0 L 1.6875 -7 L 3.03125 -7 L 5.640625 -2.609375 L 6.515625 -7 Z M 8.109375 -7 "/></g></g><g style="fill:#004aad;fill-opacity:1;"><g transform="translate(161.271673, 267.433518)"><path style="stroke:none" d=""/></g></g><g style="fill:#004aad;fill-opacity:1;"><g transform="translate(165.580568, 267.433518)"><path style="stroke:none" d="M 3.046875 -5.703125 L 2.6875 -3.84375 L 5.9375 -3.84375 L 5.65625 -2.546875 L 2.4375 -2.546875 L 1.921875 0 L 0.296875 0 L 1.6875 -7 L 6.984375 -7 L 6.703125 -5.703125 Z M 3.046875 -5.703125 "/></g></g><g style="fill:#004aad;fill-opacity:1;"><g transform="translate(173.44806, 267.433518)"><path style="stroke:none" d="M 5.265625 -1.5 L 2.015625 -1.5 L 1.09375 0 L -0.625 0 L 3.90625 -7 L 5.5 -7 L 7.21875 0 L 5.59375 0 Z M 5 -2.734375 L 4.40625 -5.4375 L 2.765625 -2.734375 Z M 5 -2.734375 "/></g></g><g style="fill:#004aad;fill-opacity:1;"><g transform="translate(182.585045, 267.433518)"><path style="stroke:none" d="M 3.96875 0.125 C 3.269531 0.125 2.65625 0 2.125 -0.25 C 1.601562 -0.507812 1.203125 -0.867188 0.921875 -1.328125 C 0.648438 -1.785156 0.515625 -2.316406 0.515625 -2.921875 C 0.515625 -3.710938 0.691406 -4.425781 1.046875 -5.0625 C 1.410156 -5.695312 1.921875 -6.195312 2.578125 -6.5625 C 3.242188 -6.9375 4.003906 -7.125 4.859375 -7.125 C 5.484375 -7.125 6.035156 -7.015625 6.515625 -6.796875 C 6.992188 -6.585938 7.359375 -6.28125 7.609375 -5.875 L 6.4375 -4.921875 C 6.0625 -5.460938 5.5 -5.734375 4.75 -5.734375 C 4.238281 -5.734375 3.785156 -5.613281 3.390625 -5.375 C 2.992188 -5.132812 2.6875 -4.804688 2.46875 -4.390625 C 2.257812 -3.984375 2.15625 -3.523438 2.15625 -3.015625 C 2.15625 -2.472656 2.328125 -2.046875 2.671875 -1.734375 C 3.015625 -1.421875 3.492188 -1.265625 4.109375 -1.265625 C 4.847656 -1.265625 5.46875 -1.53125 5.96875 -2.0625 L 6.9375 -1.09375 C 6.238281 -0.28125 5.25 0.125 3.96875 0.125 Z M 3.96875 0.125 "/></g></g><g style="fill:#004aad;fill-opacity:1;"><g transform="translate(191.392166, 267.433518)"><path style="stroke:none" d="M 1.6875 -7 L 3.3125 -7 L 1.921875 0 L 0.296875 0 Z M 1.6875 -7 "/></g></g><g style="fill:#004aad;fill-opacity:1;"><g transform="translate(196.150882, 267.433518)"><path style="stroke:none" d="M 1.6875 -7 L 3.3125 -7 L 2.1875 -1.3125 L 5.6875 -1.3125 L 5.421875 0 L 0.296875 0 Z M 1.6875 -7 "/></g></g><g style="fill:#004aad;fill-opacity:1;"><g transform="translate(203.668505, 267.433518)"><path style="stroke:none" d="M 1.6875 -7 L 3.3125 -7 L 1.921875 0 L 0.296875 0 Z M 1.6875 -7 "/></g></g><g style="fill:#004aad;fill-opacity:1;"><g transform="translate(208.427222, 267.433518)"><path style="stroke:none" d="M 2.875 -5.6875 L 0.625 -5.6875 L 0.90625 -7 L 7 -7 L 6.734375 -5.6875 L 4.5 -5.6875 L 3.359375 0 L 1.734375 0 Z M 2.875 -5.6875 "/></g></g><g style="fill:#004aad;fill-opacity:1;"><g transform="translate(216.084795, 267.433518)"><path style="stroke:none" d="M 1.6875 -7 L 3.3125 -7 L 1.921875 0 L 0.296875 0 Z M 1.6875 -7 "/></g></g><g style="fill:#004aad;fill-opacity:1;"><g transform="translate(220.843511, 267.433518)"><path style="stroke:none" d="M 3.046875 -5.703125 L 2.734375 -4.1875 L 5.984375 -4.1875 L 5.734375 -2.921875 L 2.484375 -2.921875 L 2.15625 -1.296875 L 5.984375 -1.296875 L 5.703125 0 L 0.296875 0 L 1.6875 -7 L 6.984375 -7 L 6.703125 -5.703125 Z M 3.046875 -5.703125 "/></g></g><g style="fill:#004aad;fill-opacity:1;"><g transform="translate(229.030877, 267.433518)"><path style="stroke:none" d="M 2.734375 0.125 C 2.179688 0.125 1.648438 0.0507812 1.140625 -0.09375 C 0.628906 -0.238281 0.222656 -0.425781 -0.078125 -0.65625 L 0.578125 -1.90625 C 0.898438 -1.675781 1.257812 -1.5 1.65625 -1.375 C 2.0625 -1.25 2.472656 -1.1875 2.890625 -1.1875 C 3.335938 -1.1875 3.691406 -1.257812 3.953125 -1.40625 C 4.210938 -1.550781 4.34375 -1.75 4.34375 -2 C 4.34375 -2.207031 4.238281 -2.363281 4.03125 -2.46875 C 3.820312 -2.582031 3.492188 -2.703125 3.046875 -2.828125 C 2.585938 -2.960938 2.210938 -3.09375 1.921875 -3.21875 C 1.640625 -3.34375 1.394531 -3.523438 1.1875 -3.765625 C 0.976562 -4.015625 0.875 -4.34375 0.875 -4.75 C 0.875 -5.21875 1.003906 -5.632812 1.265625 -6 C 1.523438 -6.363281 1.894531 -6.640625 2.375 -6.828125 C 2.863281 -7.023438 3.425781 -7.125 4.0625 -7.125 C 4.539062 -7.125 4.988281 -7.070312 5.40625 -6.96875 C 5.832031 -6.863281 6.191406 -6.710938 6.484375 -6.515625 L 5.875 -5.28125 C 5.613281 -5.457031 5.320312 -5.585938 5 -5.671875 C 4.675781 -5.765625 4.335938 -5.8125 3.984375 -5.8125 C 3.523438 -5.8125 3.160156 -5.734375 2.890625 -5.578125 C 2.617188 -5.421875 2.484375 -5.210938 2.484375 -4.953125 C 2.484375 -4.804688 2.539062 -4.679688 2.65625 -4.578125 C 2.769531 -4.472656 2.910156 -4.390625 3.078125 -4.328125 C 3.253906 -4.265625 3.5 -4.1875 3.8125 -4.09375 C 4.257812 -3.976562 4.625 -3.859375 4.90625 -3.734375 C 5.195312 -3.609375 5.441406 -3.425781 5.640625 -3.1875 C 5.847656 -2.957031 5.953125 -2.648438 5.953125 -2.265625 C 5.953125 -1.785156 5.816406 -1.363281 5.546875 -1 C 5.285156 -0.644531 4.910156 -0.367188 4.421875 -0.171875 C 3.941406 0.0234375 3.378906 0.125 2.734375 0.125 Z M 2.734375 0.125 "/></g></g><g style="fill:#004aad;fill-opacity:1;"><g transform="translate(236.888367, 267.433518)"><path style="stroke:none" d=""/></g></g><g style="fill:#004aad;fill-opacity:1;"><g transform="translate(241.197262, 267.433518)"><path style="stroke:none" d="M 5.75 -3.609375 L 7.234375 -3.609375 L 6.65625 -0.734375 C 6.300781 -0.453125 5.890625 -0.238281 5.421875 -0.09375 C 4.953125 0.0507812 4.46875 0.125 3.96875 0.125 C 3.269531 0.125 2.660156 0 2.140625 -0.25 C 1.617188 -0.507812 1.21875 -0.867188 0.9375 -1.328125 C 0.65625 -1.785156 0.515625 -2.316406 0.515625 -2.921875 C 0.515625 -3.710938 0.695312 -4.425781 1.0625 -5.0625 C 1.425781 -5.707031 1.941406 -6.210938 2.609375 -6.578125 C 3.273438 -6.941406 4.039062 -7.125 4.90625 -7.125 C 5.570312 -7.125 6.148438 -7.019531 6.640625 -6.8125 C 7.128906 -6.601562 7.523438 -6.300781 7.828125 -5.90625 L 6.671875 -4.953125 C 6.429688 -5.234375 6.164062 -5.429688 5.875 -5.546875 C 5.582031 -5.671875 5.238281 -5.734375 4.84375 -5.734375 C 4.3125 -5.734375 3.835938 -5.613281 3.421875 -5.375 C 3.015625 -5.144531 2.703125 -4.820312 2.484375 -4.40625 C 2.265625 -4 2.15625 -3.535156 2.15625 -3.015625 C 2.15625 -2.472656 2.328125 -2.046875 2.671875 -1.734375 C 3.023438 -1.421875 3.53125 -1.265625 4.1875 -1.265625 C 4.59375 -1.265625 4.976562 -1.347656 5.34375 -1.515625 Z M 5.75 -3.609375 "/></g></g><g style="fill:#004aad;fill-opacity:1;"><g transform="translate(250.384223, 267.433518)"><path style="stroke:none" d="M 7.28125 -4.828125 C 7.28125 -4.171875 7.101562 -3.609375 6.75 -3.140625 C 6.394531 -2.679688 5.90625 -2.351562 5.28125 -2.15625 L 6.5 0 L 4.796875 0 L 3.6875 -1.953125 L 2.3125 -1.953125 L 1.921875 0 L 0.296875 0 L 1.6875 -7 L 4.546875 -7 C 5.410156 -7 6.082031 -6.804688 6.5625 -6.421875 C 7.039062 -6.046875 7.28125 -5.515625 7.28125 -4.828125 Z M 3.9375 -3.25 C 4.476562 -3.25 4.894531 -3.367188 5.1875 -3.609375 C 5.488281 -3.859375 5.640625 -4.21875 5.640625 -4.6875 C 5.640625 -5.019531 5.523438 -5.269531 5.296875 -5.4375 C 5.066406 -5.601562 4.742188 -5.6875 4.328125 -5.6875 L 3.046875 -5.6875 L 2.5625 -3.25 Z M 3.9375 -3.25 "/></g></g><g style="fill:#004aad;fill-opacity:1;"><g transform="translate(259.211337, 267.433518)"><path style="stroke:none" d="M 3.921875 0.125 C 3.222656 0.125 2.613281 0 2.09375 -0.25 C 1.582031 -0.507812 1.191406 -0.867188 0.921875 -1.328125 C 0.648438 -1.785156 0.515625 -2.316406 0.515625 -2.921875 C 0.515625 -3.710938 0.691406 -4.425781 1.046875 -5.0625 C 1.410156 -5.695312 1.921875 -6.195312 2.578125 -6.5625 C 3.234375 -6.9375 3.988281 -7.125 4.84375 -7.125 C 5.539062 -7.125 6.144531 -6.992188 6.65625 -6.734375 C 7.175781 -6.484375 7.570312 -6.128906 7.84375 -5.671875 C 8.113281 -5.210938 8.25 -4.679688 8.25 -4.078125 C 8.25 -3.285156 8.066406 -2.570312 7.703125 -1.9375 C 7.335938 -1.300781 6.828125 -0.796875 6.171875 -0.421875 C 5.515625 -0.0546875 4.765625 0.125 3.921875 0.125 Z M 4.0625 -1.265625 C 4.570312 -1.265625 5.019531 -1.382812 5.40625 -1.625 C 5.789062 -1.875 6.085938 -2.203125 6.296875 -2.609375 C 6.503906 -3.023438 6.609375 -3.484375 6.609375 -3.984375 C 6.609375 -4.523438 6.441406 -4.953125 6.109375 -5.265625 C 5.773438 -5.578125 5.304688 -5.734375 4.703125 -5.734375 C 4.191406 -5.734375 3.738281 -5.609375 3.34375 -5.359375 C 2.957031 -5.117188 2.660156 -4.789062 2.453125 -4.375 C 2.253906 -3.96875 2.15625 -3.515625 2.15625 -3.015625 C 2.15625 -2.472656 2.320312 -2.046875 2.65625 -1.734375 C 2.988281 -1.421875 3.457031 -1.265625 4.0625 -1.265625 Z M 4.0625 -1.265625 "/></g></g><g style="fill:#004aad;fill-opacity:1;"><g transform="translate(269.12802, 267.433518)"><path style="stroke:none" d="M 3.59375 0.125 C 2.707031 0.125 2.015625 -0.09375 1.515625 -0.53125 C 1.015625 -0.96875 0.765625 -1.566406 0.765625 -2.328125 C 0.765625 -2.546875 0.789062 -2.796875 0.84375 -3.078125 L 1.625 -7 L 3.265625 -7 L 2.484375 -3.109375 C 2.441406 -2.890625 2.421875 -2.691406 2.421875 -2.515625 C 2.421875 -2.097656 2.535156 -1.785156 2.765625 -1.578125 C 2.992188 -1.367188 3.328125 -1.265625 3.765625 -1.265625 C 4.265625 -1.265625 4.660156 -1.410156 4.953125 -1.703125 C 5.242188 -1.992188 5.457031 -2.460938 5.59375 -3.109375 L 6.375 -7 L 7.953125 -7 L 7.171875 -3.015625 C 6.742188 -0.921875 5.550781 0.125 3.59375 0.125 Z M 3.59375 0.125 "/></g></g><g style="fill:#004aad;fill-opacity:1;"><g transform="translate(278.484914, 267.433518)"><path style="stroke:none" d="M 4.515625 -7 C 5.390625 -7 6.066406 -6.804688 6.546875 -6.421875 C 7.023438 -6.035156 7.265625 -5.5 7.265625 -4.8125 C 7.265625 -4.226562 7.125 -3.71875 6.84375 -3.28125 C 6.570312 -2.84375 6.179688 -2.507812 5.671875 -2.28125 C 5.160156 -2.050781 4.554688 -1.9375 3.859375 -1.9375 L 2.296875 -1.9375 L 1.921875 0 L 0.296875 0 L 1.6875 -7 Z M 3.9375 -3.25 C 4.46875 -3.25 4.878906 -3.367188 5.171875 -3.609375 C 5.472656 -3.859375 5.625 -4.21875 5.625 -4.6875 C 5.625 -5.019531 5.507812 -5.269531 5.28125 -5.4375 C 5.0625 -5.601562 4.738281 -5.6875 4.3125 -5.6875 L 3.046875 -5.6875 L 2.5625 -3.25 Z M 3.9375 -3.25 "/></g></g><g style="fill:#004aad;fill-opacity:1;"><g transform="translate(174.626756, 280.933518)"><path style="stroke:none" d="M 1.6875 -7 L 3.3125 -7 L 1.921875 0 L 0.296875 0 Z M 1.6875 -7 "/></g></g><g style="fill:#004aad;fill-opacity:1;"><g transform="translate(179.385472, 280.933518)"><path style="stroke:none" d="M 8.109375 -7 L 6.703125 0 L 5.375 0 L 2.765625 -4.375 L 1.890625 0 L 0.296875 0 L 1.6875 -7 L 3.03125 -7 L 5.640625 -2.609375 L 6.515625 -7 Z M 8.109375 -7 "/></g></g><g style="fill:#004aad;fill-opacity:1;"><g transform="translate(188.942295, 280.933518)"><path style="stroke:none" d="M 3.96875 0.125 C 3.269531 0.125 2.65625 0 2.125 -0.25 C 1.601562 -0.507812 1.203125 -0.867188 0.921875 -1.328125 C 0.648438 -1.785156 0.515625 -2.316406 0.515625 -2.921875 C 0.515625 -3.710938 0.691406 -4.425781 1.046875 -5.0625 C 1.410156 -5.695312 1.921875 -6.195312 2.578125 -6.5625 C 3.242188 -6.9375 4.003906 -7.125 4.859375 -7.125 C 5.484375 -7.125 6.035156 -7.015625 6.515625 -6.796875 C 6.992188 -6.585938 7.359375 -6.28125 7.609375 -5.875 L 6.4375 -4.921875 C 6.0625 -5.460938 5.5 -5.734375 4.75 -5.734375 C 4.238281 -5.734375 3.785156 -5.613281 3.390625 -5.375 C 2.992188 -5.132812 2.6875 -4.804688 2.46875 -4.390625 C 2.257812 -3.984375 2.15625 -3.523438 2.15625 -3.015625 C 2.15625 -2.472656 2.328125 -2.046875 2.671875 -1.734375 C 3.015625 -1.421875 3.492188 -1.265625 4.109375 -1.265625 C 4.847656 -1.265625 5.46875 -1.53125 5.96875 -2.0625 L 6.9375 -1.09375 C 6.238281 -0.28125 5.25 0.125 3.96875 0.125 Z M 3.96875 0.125 "/></g></g><g style="fill:#004aad;fill-opacity:1;"><g transform="translate(197.749416, 280.933518)"><path style="stroke:none" d="M 0.90625 0.078125 C 0.632812 0.078125 0.410156 -0.00390625 0.234375 -0.171875 C 0.0664062 -0.347656 -0.015625 -0.5625 -0.015625 -0.8125 C -0.015625 -1.125 0.0820312 -1.375 0.28125 -1.5625 C 0.476562 -1.757812 0.722656 -1.859375 1.015625 -1.859375 C 1.285156 -1.859375 1.503906 -1.773438 1.671875 -1.609375 C 1.847656 -1.441406 1.9375 -1.222656 1.9375 -0.953125 C 1.9375 -0.660156 1.832031 -0.414062 1.625 -0.21875 C 1.414062 -0.0195312 1.175781 0.078125 0.90625 0.078125 Z M 0.90625 0.078125 "/></g></g></g></svg>